HIERARCHY
ROOT SpineBase
{
  OFFSET 0.000000 0.000000 0.000000
  CHANNELS 6 Xposition Yposition Zposition Zrotation Xrotation Yrotation
  JOINT SpineMid
  {
    OFFSET -0.000000 37.011344 0.000000
    CHANNELS 3 Zrotation Xrotation Yrotation
    JOINT SpineShoulder
    {
      OFFSET -0.826032 26.855775 -1.665927
      CHANNELS 3 Zrotation Xrotation Yrotation
      JOINT Neck
      {
        OFFSET -0.167103 8.760185 -0.907560
        CHANNELS 3 Zrotation Xrotation Yrotation
        JOINT Head
        {
          OFFSET 6.239172 10.117420 6.449073
          CHANNELS 3 Zrotation Xrotation Yrotation
          End Site
          {
            OFFSET 0 0 0
          }
        }
      }
      JOINT ShoulderLeft
      {
        OFFSET -3.319902 -6.306918 -16.283240
        CHANNELS 3 Zrotation Xrotation Yrotation
        JOINT ElbowLeft
        {
          OFFSET 5.303716 -28.633003 -7.458201
          CHANNELS 3 Zrotation Xrotation Yrotation
          JOINT WristLeft
          {
            OFFSET 8.840773 -25.071931 4.051731
            CHANNELS 3 Zrotation Xrotation Yrotation
            JOINT HandLeft
            {
              OFFSET 0.126688 -8.792604 3.313662
              CHANNELS 3 Zrotation Xrotation Yrotation
              JOINT HandTipLeft
              {
                OFFSET 3.916945 -7.241482 1.429019
                CHANNELS 3 Zrotation Xrotation Yrotation
                End Site
                {
                  OFFSET 0 0 0
                }
              }
              JOINT ThumbLeft
              {
                OFFSET -5.483512 -1.726562 -0.967982
                CHANNELS 3 Zrotation Xrotation Yrotation
                End Site
                {
                  OFFSET 0 0 0
                }
              }
            }
          }
        }
      }
      JOINT ShoulderRight
      {
        OFFSET 5.474145 -5.036369 19.862636
        CHANNELS 3 Zrotation Xrotation Yrotation
        JOINT ElbowRight
        {
          OFFSET 4.931531 -25.714539 20.565680
          CHANNELS 3 Zrotation Xrotation Yrotation
          JOINT WristRight
          {
            OFFSET 0.017834 -24.172201 6.641526
            CHANNELS 3 Zrotation Xrotation Yrotation
            JOINT HandRight
            {
              OFFSET 2.570115 -6.673761 2.626111
              CHANNELS 3 Zrotation Xrotation Yrotation
              JOINT HandTipRight
              {
                OFFSET 0.247413 -0.926778 -0.853070
                CHANNELS 3 Zrotation Xrotation Yrotation
                End Site
                {
                  OFFSET 0 0 0
                }
              }
              JOINT ThumbRight
              {
                OFFSET 0.185659 0.740328 -2.136506
                CHANNELS 3 Zrotation Xrotation Yrotation
                End Site
                {
                  OFFSET 0 0 0
                }
              }
            }
          }
        }
      }
    }
  }
  JOINT HipLeft
  {
    OFFSET -0.459502 1.709523 -9.670792
    CHANNELS 3 Zrotation Xrotation Yrotation
    JOINT KneeLeft
    {
      OFFSET -0.858443 -40.486304 5.610615
      CHANNELS 3 Zrotation Xrotation Yrotation
      JOINT AnkleLeft
      {
        OFFSET -4.202685 -36.169031 6.250270
        CHANNELS 3 Zrotation Xrotation Yrotation
        JOINT FootLeft
        {
          OFFSET 12.814401 -3.634874 -7.850401
          CHANNELS 3 Zrotation Xrotation Yrotation
          End Site
          {
            OFFSET 0 0 0
          }
        }
      }
    }
  }
  JOINT HipRight
  {
    OFFSET 0.893186 -0.581672 1.331084
    CHANNELS 3 Zrotation Xrotation Yrotation
    JOINT KneeRight
    {
      OFFSET -12.659477 -41.012417 6.960120
      CHANNELS 3 Zrotation Xrotation Yrotation
      JOINT AnkleRight
      {
        OFFSET 0.890929 -33.614187 2.821182
        CHANNELS 3 Zrotation Xrotation Yrotation
        JOINT FootRight
        {
          OFFSET 9.072549 -5.795985 -6.799595
          CHANNELS 3 Zrotation Xrotation Yrotation
          End Site
          {
            OFFSET 0 0 0
          }
        }
      }
    }
  }
}
MOTION
Frames: 9
Frame Time: 0.033333
-17.215187 84.729882 335.522237 0.000000 0.000000 -82.990626 0.000000 -0.000000 82.990626 -0.000000 0.000000 0.000000 -0.000000 0.000000 0.000000 0.000000 0.000000 0.000000 -0.000000 0.000000 0.000000 -0.000000 0.000000 0.000000 -0.000000 0.000000 0.000000 -0.000000 0.000000 0.000000 0.000000 0.000000 0.000000 0.000000 0.000000 0.000000 -0.000000 0.000000 0.000000 -0.000000 0.000000 0.000000 -0.000000 0.000000 0.000000 -0.000000 0.000000 0.000000 0.000000 0.000000 0.000000 0.000000 0.000000 0.000000 0.000000 -0.000000 82.990626 -0.000000 0.000000 0.000000 -0.000000 0.000000 0.000000 0.000000 0.000000 0.000000 0.000000 -0.000000 82.990626 -0.000000 0.000000 0.000000 -0.000000 0.000000 0.000000 0.000000 0.000000 0.000000
-17.336776 84.440865 335.178246 -0.001423 0.251215 -83.133639 0.249584 -0.028621 83.133705 -0.000000 0.000000 0.000000 -0.000000 0.000000 0.000000 0.000000 0.000000 0.000000 -0.000000 0.000000 0.000000 -0.000000 0.000000 0.000000 -0.000000 0.000000 0.000000 -0.000000 0.000000 0.000000 0.000000 0.000000 0.000000 0.000000 0.000000 0.000000 -0.000000 0.000000 0.000000 -0.000000 0.000000 0.000000 -0.000000 0.000000 0.000000 -0.000000 0.000000 0.000000 0.000000 0.000000 0.000000 0.000000 0.000000 0.000000 0.249584 -0.028621 83.133705 -0.000000 0.000000 0.000000 -2.608982 -2.649420 -4.328444 0.000000 0.000000 0.000000 1.396942 -0.247171 83.481941 0.086871 1.164749 -0.346358 0.657204 0.035451 -0.709089 0.000000 0.000000 0.000000
-17.506664 84.217323 334.817681 -0.062053 0.518251 -83.118145 -0.415676 -0.462880 83.106111 0.571595 -0.875349 0.012891 -0.000000 0.000000 0.000000 0.000000 0.000000 0.000000 -0.000000 0.000000 0.000000 -0.000000 0.000000 0.000000 -0.419267 0.848492 -0.143086 0.421430 -0.847419 0.149307 0.000000 0.000000 0.000000 0.000000 0.000000 0.000000 -0.000000 0.000000 0.000000 -0.000000 0.000000 0.000000 -0.000000 0.000000 0.000000 -0.000000 0.000000 0.000000 0.000000 0.000000 0.000000 0.000000 0.000000 0.000000 1.497478 0.382374 83.203527 -0.495629 0.923361 -0.084356 -6.115262 -5.479405 -9.023374 0.000000 0.000000 0.000000 2.673469 -0.321159 83.783207 0.085682 2.173584 -0.660365 1.327553 0.050231 -1.452287 0.000000 0.000000 0.000000
-17.724851 84.059256 334.440540 -0.181663 0.801620 -82.945604 -0.581879 -0.627971 82.925287 0.876845 -1.301658 0.024294 -0.000000 0.000000 0.000000 0.000000 0.000000 0.000000 -0.000000 0.000000 0.000000 -0.000000 0.000000 0.000000 -0.717929 1.382995 -0.243103 -0.216601 -0.731566 0.411948 0.000000 0.000000 0.000000 0.000000 0.000000 0.000000 -0.000000 0.000000 0.000000 -0.000000 0.000000 0.000000 -0.000000 0.000000 0.000000 -0.000000 0.000000 0.000000 0.000000 0.000000 0.000000 0.000000 0.000000 0.000000 2.360854 0.770284 83.086215 -0.869169 1.448904 -0.140408 -10.861873 -8.486785 -14.299771 0.000000 0.000000 0.000000 3.835350 -0.236679 83.892151 -1.087113 3.212869 -0.969379 3.093973 -0.112867 -2.134572 0.000000 0.000000 0.000000
-17.991336 83.966664 334.046826 -0.360305 1.101898 -82.618333 -0.723099 -0.748203 82.589819 0.684183 -0.870711 -0.009191 0.512001 -0.851494 0.040571 0.000000 0.000000 0.000000 0.512001 -0.851494 0.040571 -0.000000 0.000000 0.000000 -1.075143 1.991481 -0.360223 -0.339560 -1.057021 0.587972 0.000000 0.000000 0.000000 0.000000 0.000000 0.000000 0.512001 -0.851494 0.040571 -0.000000 0.000000 0.000000 -0.000000 0.000000 0.000000 -0.000000 0.000000 0.000000 0.000000 0.000000 0.000000 0.000000 0.000000 0.000000 3.301588 1.277856 82.818083 -1.324030 2.012797 -0.203360 -17.364578 -11.598265 -20.468908 0.000000 0.000000 0.000000 4.890184 -0.004789 83.809066 -1.477332 3.957742 -1.207191 3.997015 -0.156145 -2.921863 0.000000 0.000000 0.000000
-18.306120 83.939548 333.636536 -0.598303 1.419718 -82.139507 -0.840309 -0.823472 82.104022 0.862397 -1.045945 -0.009234 0.668125 -1.092474 0.054689 0.000000 0.000000 0.000000 0.668125 -1.092474 0.054689 -0.000000 0.000000 0.000000 -1.490504 2.674592 -0.492842 -0.487267 -1.425183 0.780362 0.000000 0.000000 0.000000 0.000000 0.000000 0.000000 0.668125 -1.092474 0.054689 -0.000000 0.000000 0.000000 -0.000000 0.000000 0.000000 -0.000000 0.000000 0.000000 0.000000 0.000000 0.000000 0.000000 0.000000 0.000000 4.321940 1.893996 82.398512 -1.856795 2.611050 -0.271154 -26.333685 -14.559606 -27.916156 0.000000 0.000000 0.000000 5.847123 0.367054 83.536422 -1.874391 4.544734 -1.411057 4.823569 -0.202433 -3.746972 0.000000 0.000000 0.000000
-18.767607 84.046157 333.115368 -1.013727 1.860629 -81.207682 -0.862513 -0.774724 81.171426 1.091700 -1.271767 -0.005430 0.333561 -0.347733 -0.225808 0.000000 0.000000 0.000000 0.821660 -1.321263 0.069304 -0.000000 0.000000 0.000000 -1.984408 3.651119 -0.639897 -0.843802 -2.523168 0.665939 0.000000 0.000000 0.000000 0.000000 0.000000 0.000000 0.821660 -1.321263 0.069304 -0.000000 0.000000 0.000000 -0.000000 0.000000 0.000000 -0.000000 0.000000 0.000000 0.000000 0.000000 0.000000 0.000000 0.000000 0.000000 5.666591 2.839279 81.534967 -2.638071 3.320596 -0.360869 -52.910895 -16.831204 -48.127975 0.000000 0.000000 0.000000 6.818895 0.851586 82.752248 -1.700955 5.151083 -1.564547 7.071195 -0.375020 -6.540565 0.000000 0.000000 0.000000
-19.240692 84.202055 332.587453 -1.449027 2.301525 -80.211738 -0.893321 -0.719562 80.178287 1.299310 -1.445604 -0.002980 0.330232 -0.295787 -0.296721 0.000000 0.000000 0.000000 1.013569 -1.611754 0.088376 -0.000000 0.000000 0.000000 -2.723920 4.672195 -0.861784 -1.326824 -3.194512 0.806370 0.000000 0.000000 0.000000 0.000000 0.000000 0.000000 1.013569 -1.611754 0.088376 -0.000000 0.000000 0.000000 -0.000000 0.000000 0.000000 -0.000000 0.000000 0.000000 0.000000 0.000000 0.000000 0.000000 0.000000 0.000000 7.048715 3.734755 80.587918 -3.400192 4.032239 -0.439004 -62.033211 -16.107898 -53.258262 0.000000 0.000000 0.000000 7.644928 1.811999 81.883810 -3.197999 4.441844 -1.745400 6.674511 0.118174 -6.081452 0.000000 0.000000 0.000000
-19.653447 84.317820 332.223295 -1.820920 2.585561 -79.438113 -0.958311 -0.681064 79.406659 1.455444 -1.494456 -0.001104 0.309906 -0.359934 -0.282807 0.000000 0.000000 0.000000 1.214321 -1.905463 0.109442 -0.680358 0.496413 0.068232 -2.704436 4.959538 -1.150222 -2.428614 -3.677279 0.732257 0.000000 0.000000 0.000000 0.000000 0.000000 0.000000 1.214321 -1.905463 0.109442 -0.000000 0.000000 0.000000 -0.000000 0.000000 0.000000 -0.000000 0.000000 0.000000 0.000000 0.000000 0.000000 0.000000 0.000000 0.000000 8.082956 4.509091 79.842743 -4.055873 4.562995 -0.499827 -72.863280 -14.214768 -59.172352 0.000000 0.000000 0.000000 8.817443 1.967950 81.329103 -1.424369 7.274233 -1.943773 9.039542 -1.404181 -9.175671 0.000000 0.000000 0.000000
